# xmcd CD database file
#
# Track frame offsets:
#	150
#	16700
#	34762
#	51227
#
# Disc length: 920 seconds
#
# Revision: 0
# Processed by: cddbd v1.5.1PL0 Copyright (c) Steve Scherf et al.
# Submitted via: CDex 1.51
#
DISCID=26039604
DTITLE=ＫＵＫＯ - ムカムカパラダイス
DYEAR=1993
DGENRE=Anime
TTITLE0=とっておきのキモチ
TTITLE1=キテーラ・ミテーラ
TTITLE2=とっておきのキモチ（カラオケ）
TTITLE3=キテーラ・ミテーラ（カラオケ）
EXTD=YEAR: 1993
EXTT0=
EXTT1=
EXTT2=
EXTT3=
PLAYORDER=
